<svg width="64" height="64" viewBox="0 0 64 64" fill="none" xmlns="http://www.w3.org/2000/svg">
<rect x="6.22266" y="19" width="51.5556" height="18.2593" fill="#D5F4F0" stroke="#007972" stroke-linejoin="round"/>
<rect x="14.0664" y="32.6953" width="35.8647" height="4.56482" fill="white" stroke="#007972" stroke-linejoin="round"/>
<line x1="28.6367" y1="28.7715" x2="35.3614" y2="28.7715" stroke="#007972"/>
<path d="M26.0544 42.6289C26.0544 42.3528 25.8305 42.1289 25.5544 42.1289C25.2783 42.1289 25.0544 42.3528 25.0544 42.6289H26.0544ZM23.1826 47.5521C22.9357 47.6756 22.8355 47.9759 22.959 48.2229C23.0825 48.4699 23.3829 48.57 23.6299 48.4465L23.1826 47.5521ZM23.896 47.7544L23.6724 47.3072L23.896 47.7544ZM25.0544 42.6289V45.0711H26.0544V42.6289H25.0544ZM23.6724 47.3072L23.1826 47.5521L23.6299 48.4465L24.1196 48.2016L23.6724 47.3072ZM25.0544 45.0711C25.0544 46.018 24.5194 46.8837 23.6724 47.3072L24.1196 48.2016C25.3054 47.6087 26.0544 46.3968 26.0544 45.0711H25.0544Z" fill="#007972"/>
<path d="M37.9417 42.6289C37.9417 42.3528 38.1656 42.1289 38.4417 42.1289C38.7178 42.1289 38.9417 42.3528 38.9417 42.6289H37.9417ZM40.8135 47.5521C41.0604 47.6756 41.1606 47.9759 41.0371 48.2229C40.9136 48.4699 40.6132 48.57 40.3662 48.4465L40.8135 47.5521ZM40.1001 47.7544L40.3237 47.3072L40.1001 47.7544ZM38.9417 42.6289V45.0711H37.9417V42.6289H38.9417ZM40.3237 47.3072L40.8135 47.5521L40.3662 48.4465L39.8764 48.2016L40.3237 47.3072ZM38.9417 45.0711C38.9417 46.018 39.4767 46.8837 40.3237 47.3072L39.8764 48.2016C38.6907 47.6087 37.9417 46.3968 37.9417 45.0711H38.9417Z" fill="#007972"/>
<path d="M30.3516 42.6289C30.3516 42.3528 30.1277 42.1289 29.8516 42.1289C29.5754 42.1289 29.3516 42.3528 29.3516 42.6289H30.3516ZM29.3516 47.9993C29.3516 48.2754 29.5754 48.4993 29.8516 48.4993C30.1277 48.4993 30.3516 48.2754 30.3516 47.9993H29.3516ZM29.3516 42.6289V47.9993H30.3516V42.6289H29.3516Z" fill="#007972"/>
<path d="M34.6484 42.6289C34.6484 42.3528 34.4246 42.1289 34.1484 42.1289C33.8723 42.1289 33.6484 42.3528 33.6484 42.6289H34.6484ZM33.6484 47.9993C33.6484 48.2754 33.8723 48.4993 34.1484 48.4993C34.4246 48.4993 34.6484 48.2754 34.6484 47.9993H33.6484ZM33.6484 42.6289V47.9993H34.6484V42.6289H33.6484Z" fill="#007972"/>
</svg>
