<svg width="64" height="64" viewBox="0 0 64 64" fill="none" xmlns="http://www.w3.org/2000/svg">
<path fill-rule="evenodd" clip-rule="evenodd" d="M33.267 18.2614L29.7924 25.4785C29.5669 25.9543 29.4492 24.9519 29.4492 25.4791V25.9391H42.2327V25.4791C42.2327 24.9519 42.1151 25.9543 41.8895 25.4785L38.3497 18.209" fill="white"/>
<path d="M33.2675 18.2614L29.793 25.4785M41.8901 25.4785L38.3503 18.209" stroke="#007972" stroke-linecap="round" stroke-linejoin="round"/>
<path fill-rule="evenodd" clip-rule="evenodd" d="M38.5066 11.9551V18.7803H33.1133V13.5937" fill="#007972"/>
<path d="M38.5066 12.3145V18.7819H33.1133V13.5953" stroke="#007972" stroke-linejoin="round"/>
<path fill-rule="evenodd" clip-rule="evenodd" d="M42.9121 10.8396C39.2427 10.8425 34.6367 13.9541 30.725 13.6811C29.9436 13.6811 29.3047 13.0422 29.3047 12.2599V9.41929C29.3047 8.63794 29.9436 8 30.725 8H42.9121V10.8396Z" fill="white"/>
<path fill-rule="evenodd" clip-rule="evenodd" d="M42.9121 10.8396C39.2427 10.8425 34.6367 13.9541 30.725 13.6811C29.9436 13.6811 29.3047 13.0422 29.3047 12.2599V9.41929C29.3047 8.63794 29.9436 8 30.725 8H42.9121V10.8396Z" stroke="#007972" stroke-linejoin="round"/>
<path d="M38.457 11.7305C38.457 11.7305 39.4392 14.9775 42.4874 16.3622" stroke="#007972" stroke-linejoin="round"/>
<rect x="10.9023" y="29.1602" width="35.88" height="24.84" fill="#D5F4F0" stroke="#007972" stroke-linejoin="round"/>
<path d="M8.14453 29.1602H47.7045" stroke="#007972" stroke-linecap="round" stroke-linejoin="round"/>
<circle cx="10.9028" cy="48.4809" r="5.52" fill="white" stroke="#007972"/>
<circle cx="10.9025" cy="48.4806" r="1.84" fill="#007972" stroke="#007972"/>
<path d="M14.582 18.041C14.582 16.3842 15.9252 15.041 17.582 15.041H21.702C23.3589 15.041 24.702 16.3842 24.702 18.041V25.9395H14.582V18.041Z" fill="white"/>
<path d="M17.3438 10.7598H21.9437V14.6521H17.3438V10.7598Z" fill="#007972" stroke="#007972" stroke-linejoin="round"/>
<path d="M17.582 15.541H21.702V14.541H17.582V15.541ZM24.202 18.041V25.9395H25.202V18.041H24.202ZM15.082 25.9395V18.041H14.082V25.9395H15.082ZM21.702 15.541C23.0827 15.541 24.202 16.6603 24.202 18.041H25.202C25.202 16.108 23.635 14.541 21.702 14.541V15.541ZM17.582 14.541C15.649 14.541 14.082 16.108 14.082 18.041H15.082C15.082 16.6603 16.2013 15.541 17.582 15.541V14.541Z" fill="#007972"/>
<path d="M46.3242 9.38C46.3242 8.61785 46.9421 8 47.7042 8C48.4664 8 49.0842 8.61785 49.0842 9.38V42.04H46.3242V9.38Z" fill="#D5F4F0"/>
<path d="M49.0842 42.04V42.54C49.3604 42.54 49.5842 42.3161 49.5842 42.04H49.0842ZM46.3242 42.04H45.8242C45.8242 42.3161 46.0481 42.54 46.3242 42.54V42.04ZM48.5842 9.38V42.04H49.5842V9.38H48.5842ZM49.0842 41.54H46.3242V42.54H49.0842V41.54ZM46.8242 42.04V9.38H45.8242V42.04H46.8242ZM47.7042 8.5C48.1902 8.5 48.5842 8.89399 48.5842 9.38H49.5842C49.5842 8.3417 48.7425 7.5 47.7042 7.5V8.5ZM47.7042 7.5C46.6659 7.5 45.8242 8.3417 45.8242 9.38H46.8242C46.8242 8.89399 47.2182 8.5 47.7042 8.5V7.5Z" fill="#007972"/>
<path d="M35.5171 45.9951C35.8298 43.4929 37.9568 41.6152 40.4785 41.6152H54.5622C57.0838 41.6152 59.2108 43.4929 59.5236 45.9951L59.5953 46.5691H35.4453L35.5171 45.9951Z" fill="#D5F4F0"/>
<path d="M59.5953 46.5691V47.0691C59.7387 47.0691 59.8752 47.0075 59.9701 46.9C60.0651 46.7925 60.1092 46.6494 60.0914 46.5071L59.5953 46.5691ZM35.4453 46.5691L34.9492 46.5071C34.9314 46.6494 34.9756 46.7925 35.0705 46.9C35.1654 47.0075 35.3019 47.0691 35.4453 47.0691V46.5691ZM40.4785 42.1152H54.5622V41.1152H40.4785V42.1152ZM59.0274 46.0571L59.0992 46.6311L60.0914 46.5071L60.0197 45.933L59.0274 46.0571ZM59.5953 46.0691H35.4453V47.0691H59.5953V46.0691ZM35.9415 46.6311L36.0132 46.0571L35.0209 45.933L34.9492 46.5071L35.9415 46.6311ZM54.5622 42.1152C56.8316 42.1152 58.7459 43.8051 59.0274 46.0571L60.0197 45.933C59.6757 43.1807 57.336 41.1152 54.5622 41.1152V42.1152ZM40.4785 41.1152C37.7047 41.1152 35.365 43.1807 35.0209 45.933L36.0132 46.0571C36.2947 43.8051 38.209 42.1152 40.4785 42.1152V41.1152Z" fill="#007972"/>
<path d="M34.8242 54H60.2127L59.5934 46.5692H35.4434L34.8242 54Z" fill="white" stroke="#007972" stroke-linejoin="round"/>
<path d="M38.3477 53.9996V54.4996H39.3477V53.9996H38.3477ZM39.3477 49.9746V49.4746H38.3477V49.9746H39.3477ZM39.3477 53.9996V49.9746H38.3477V53.9996H39.3477Z" fill="#007972"/>
<path d="M42.6836 53.9996V54.4996H43.6836V53.9996H42.6836ZM43.6836 49.9746V49.4746H42.6836V49.9746H43.6836ZM43.6836 53.9996V49.9746H42.6836V53.9996H43.6836Z" fill="#007972"/>
<path d="M47.0156 53.9996V54.4996H48.0156V53.9996H47.0156ZM48.0156 49.9746V49.4746H47.0156V49.9746H48.0156ZM48.0156 53.9996V49.9746H47.0156V53.9996H48.0156Z" fill="#007972"/>
<path d="M51.3516 53.9996V54.4996H52.3516V53.9996H51.3516ZM52.3516 49.9746V49.4746H51.3516V49.9746H52.3516ZM52.3516 53.9996V49.9746H51.3516V53.9996H52.3516Z" fill="#007972"/>
<path d="M55.6875 53.9996V54.4996H56.6875V53.9996H55.6875ZM56.6875 49.9746V49.4746H55.6875V49.9746H56.6875ZM56.6875 53.9996V49.9746H55.6875V53.9996H56.6875Z" fill="#007972"/>
</svg>
