<svg width="64" height="64" viewBox="0 0 64 64" fill="none" xmlns="http://www.w3.org/2000/svg">
<path d="M14 20C14 18.8954 14.8954 18 16 18H32V33H14V20Z" fill="#D5F4F0"/>
<path d="M32 18H32.5C32.5 17.7239 32.2761 17.5 32 17.5V18ZM32 33V33.5C32.2761 33.5 32.5 33.2761 32.5 33H32ZM14 33H13.5C13.5 33.2761 13.7239 33.5 14 33.5V33ZM16 18.5H32V17.5H16V18.5ZM31.5 18V33H32.5V18H31.5ZM32 32.5H14V33.5H32V32.5ZM14.5 33V20H13.5V33H14.5ZM16 17.5C14.6193 17.5 13.5 18.6193 13.5 20H14.5C14.5 19.1716 15.1716 18.5 16 18.5V17.5Z" fill="#007972"/>
<path d="M32 18H48C49.1046 18 50 18.8954 50 20V33H32V18Z" fill="#D5F4F0"/>
<path d="M32 18V17.5C31.7239 17.5 31.5 17.7239 31.5 18H32ZM50 33V33.5C50.2761 33.5 50.5 33.2761 50.5 33H50ZM32 33H31.5C31.5 33.2761 31.7239 33.5 32 33.5V33ZM32 18.5H48V17.5H32V18.5ZM49.5 20V33H50.5V20H49.5ZM50 32.5H32V33.5H50V32.5ZM32.5 33V18H31.5V33H32.5ZM48 18.5C48.8284 18.5 49.5 19.1716 49.5 20H50.5C50.5 18.6193 49.3807 17.5 48 17.5V18.5Z" fill="#007972"/>
<path fill-rule="evenodd" clip-rule="evenodd" d="M8 24C8 22.8954 8.89543 22 10 22H14V33H50V22H54C55.1046 22 56 22.8954 56 24V33V46H8V33V24Z" fill="#D5F4F0"/>
<path d="M14 22H14.5C14.5 21.7239 14.2761 21.5 14 21.5V22ZM14 33H13.5C13.5 33.2761 13.7239 33.5 14 33.5V33ZM50 33V33.5C50.2761 33.5 50.5 33.2761 50.5 33H50ZM50 22V21.5C49.7239 21.5 49.5 21.7239 49.5 22H50ZM56 46V46.5C56.2761 46.5 56.5 46.2761 56.5 46H56ZM8 46H7.5C7.5 46.2761 7.72386 46.5 8 46.5V46ZM10 21.5C8.61929 21.5 7.5 22.6193 7.5 24H8.5C8.5 23.1716 9.17157 22.5 10 22.5V21.5ZM14 21.5H10V22.5H14V21.5ZM14.5 33V22H13.5V33H14.5ZM50 32.5H14V33.5H50V32.5ZM50.5 33V22H49.5V33H50.5ZM50 22.5H54V21.5H50V22.5ZM54 22.5C54.8284 22.5 55.5 23.1716 55.5 24H56.5C56.5 22.6193 55.3807 21.5 54 21.5V22.5ZM55.5 24V33H56.5V24H55.5ZM56.5 46V33H55.5V46H56.5ZM8 46.5H56V45.5H8V46.5ZM7.5 33V46H8.5V33H7.5ZM7.5 24V33H8.5V24H7.5Z" fill="#007972"/>
<path d="M14 46V49.5" stroke="#007972" stroke-linejoin="round"/>
<path d="M50 46V49.5" stroke="#007972" stroke-linejoin="round"/>
</svg>
