<svg width="85" height="80" viewBox="0 0 85 80" fill="none" xmlns="http://www.w3.org/2000/svg">
<g clip-path="url(#clip0_237_2482)">
<path d="M58.351 0V33.5323H71.7492L42.5062 63.7519L13.2632 33.5323H26.6516V0C17.6104 3.62741 10.128 10.2431 5.48501 18.7148C0.842053 27.1864 -0.672702 36.9872 1.20001 46.4396C3.07272 55.8919 8.21645 64.408 15.7508 70.5302C23.2851 76.6524 32.7415 80 42.5013 80C52.2611 80 61.7175 76.6524 69.2518 70.5302C76.7861 64.408 81.9299 55.8919 83.8026 46.4396C85.6753 36.9872 84.1605 27.1864 79.5176 18.7148C74.8746 10.2431 67.3922 3.62741 58.351 0Z" fill="#00D2B7"/>
<path d="M50.1186 30.2097C49.8658 29.6703 49.5155 29.1789 49.0842 28.7589C48.6446 28.3254 48.1471 27.9509 47.605 27.6451C47.0504 27.3321 46.4756 27.0539 45.8842 26.8121L44.5694 26.3441C43.6993 26.0352 42.7808 25.8105 42.7808 25.8105L42.2105 25.6514C41.8044 25.5017 41.4854 25.3707 41.2437 25.2677C41.0337 25.1921 40.8328 25.0948 40.6443 24.9775C40.5068 24.898 40.3745 24.8105 40.2479 24.7155C40.1512 24.6312 40.0352 24.5376 39.9192 24.4253C39.5915 24.1603 39.3443 23.8142 39.2038 23.4238C39.0677 23.0285 38.9991 22.6144 39.0008 22.1977C38.9964 21.7643 39.1205 21.3387 39.3585 20.9716C39.6182 20.6173 39.9465 20.3153 40.3253 20.0824C40.7059 19.8413 41.119 19.6524 41.553 19.5208C41.9683 19.3835 42.4008 19.3017 42.8388 19.2774C43.4338 19.2252 44.0324 19.2252 44.6274 19.2774C45.3047 19.3219 45.9641 19.507 46.5609 19.8203C47.1664 20.1388 47.731 20.5252 48.2431 20.9716L49.4225 19.5582C48.7803 18.9147 48.0362 18.3745 47.2183 17.9577C46.391 17.5886 45.5052 17.3576 44.5984 17.2744V15H42.8098V17.2744C42.0709 17.2919 41.3396 17.4246 40.6443 17.6675C39.9673 17.8988 39.3362 18.2407 38.7784 18.6784C38.2316 19.1142 37.7727 19.6441 37.425 20.2415C37.0662 20.8676 36.8643 21.5665 36.8352 22.2819C36.8204 22.6313 36.8562 22.981 36.9416 23.3208C37.0328 23.7136 37.1656 24.0963 37.3379 24.4627C37.5192 24.8443 37.7534 25.2002 38.034 25.5204C38.3038 25.8401 38.6314 26.1097 39.0008 26.316C39.3597 26.5354 39.7308 26.7353 40.1126 26.915C40.4799 27.0928 40.857 27.2613 41.2437 27.4298L42.8195 28.0101L44.608 28.5904C45.2521 28.8005 45.8791 29.0571 46.4836 29.3579C47.0983 29.6628 47.6111 30.1302 47.9627 30.7057C48.1024 30.9684 48.2033 31.2488 48.2624 31.5387C48.2929 31.7434 48.3091 31.9498 48.3108 32.1565V32.4279C48.3026 32.8708 48.1956 33.3068 47.997 33.7058C47.7984 34.1049 47.513 34.4576 47.1603 34.7398C46.4107 35.2435 45.5205 35.5145 44.608 35.5167C44.0131 35.5702 43.4144 35.5702 42.8195 35.5167C42.3494 35.4944 41.8829 35.4254 41.4274 35.3107C40.9313 35.1864 40.4464 35.0236 39.9772 34.824C39.512 34.6212 39.0657 34.3801 38.6431 34.1033C38.2527 33.8388 37.9014 33.5239 37.599 33.1674L36.1875 34.9176C37.0355 35.797 38.076 36.4814 39.2328 36.9206C40.3786 37.3567 41.5899 37.6096 42.8195 37.6694V40H44.608V37.6133C45.3062 37.5218 45.9929 37.3619 46.6576 37.1359C47.2975 36.9161 47.8978 36.6003 48.4364 36.1999C48.9675 35.8201 49.42 35.347 49.7706 34.8053C50.1463 34.238 50.3934 33.6 50.4956 32.9334C50.4956 32.7649 50.4956 32.6058 50.4956 32.4466C50.4956 32.2875 50.4956 32.1378 50.4956 31.988C50.5014 31.3761 50.3728 30.7699 50.1186 30.2097Z" fill="#00D2B7"/>
</g>
<defs>
<clipPath id="clip0_237_2482">
<rect width="84.1667" height="80" fill="white" transform="translate(0.417969)"/>
</clipPath>
</defs>
</svg>
