<svg width="77" height="80" viewBox="0 0 77 80" fill="none" xmlns="http://www.w3.org/2000/svg">
<g clip-path="url(#clip0_237_2492)">
<path d="M68.9167 10.834H7.25V79.1673H68.9167V10.834Z" fill="white" stroke="#00D2B7" stroke-width="2" stroke-linecap="round" stroke-linejoin="round"/>
<path d="M30.3404 58.334H45.8173C45.9762 58.334 46.1287 58.3961 46.2411 58.5067C46.3535 58.6173 46.4167 58.7673 46.4167 58.9237V79.1673H29.75V58.9237C29.75 58.7688 29.8119 58.6201 29.9224 58.5098C30.0329 58.3994 30.183 58.3363 30.3404 58.334V58.334Z" fill="#00D2B7"/>
<path d="M58.0807 0H16.4141V10.8333H58.0807V0Z" fill="#00D2B7"/>
<path d="M0.582031 79.166H76.4154" stroke="#00D2B7" stroke-width="2" stroke-linejoin="round"/>
<path d="M13.9141 30.834V20.834H23.9141L23.9141 30.834H13.9141Z" stroke="#00D2B7" stroke-width="2"/>
<path d="M13.9141 30.834V20.834H23.9141L23.9141 30.834H13.9141Z" stroke="#00D2B7" stroke-width="2"/>
<path d="M52.25 30.834V20.834H62.25L62.25 30.834H52.25Z" stroke="#00D2B7" stroke-width="2"/>
<path d="M33.082 30.834V20.834H43.082L43.082 30.834H33.082Z" stroke="#00D2B7" stroke-width="2"/>
<path d="M13.9141 69.166V59.166H23.9141L23.9141 69.166H13.9141Z" stroke="#00D2B7" stroke-width="2"/>
<path d="M13.9141 69.166V59.166H23.9141L23.9141 69.166H13.9141Z" stroke="#00D2B7" stroke-width="2"/>
<path d="M52.25 69.166V59.166H62.25L62.25 69.166H52.25Z" stroke="#00D2B7" stroke-width="2"/>
<path d="M13.9141 50V40H23.9141L23.9141 50H13.9141Z" stroke="#00D2B7" stroke-width="2"/>
<path d="M13.9141 50V40H23.9141L23.9141 50H13.9141Z" stroke="#00D2B7" stroke-width="2"/>
<path d="M52.25 50V40H62.25L62.25 50H52.25Z" stroke="#00D2B7" stroke-width="2"/>
<path d="M33.082 50V40H43.082L43.082 50H33.082Z" stroke="#00D2B7" stroke-width="2"/>
</g>
<defs>
<clipPath id="clip0_237_2492">
<rect width="75.8333" height="80" fill="white" transform="translate(0.582031)"/>
</clipPath>
</defs>
</svg>
