<svg width="77" height="80" viewBox="0 0 77 80" fill="none" xmlns="http://www.w3.org/2000/svg">
<g clip-path="url(#clip0_237_2533)">
<path d="M62.1955 1.66602H68.9254C69.3648 1.66602 69.7861 1.84189 70.0968 2.15494C70.4075 2.46799 70.582 2.89258 70.582 3.3353V79.166H60.582V3.32661C60.5841 2.89282 60.7537 2.47689 61.0549 2.16693C61.3561 1.85696 61.7651 1.67731 62.1955 1.66602Z" fill="#00D2B7" stroke="#00D2B7" stroke-width="2" stroke-miterlimit="10"/>
<path d="M44.7315 27.5H51.4326C51.6492 27.5 51.8637 27.543 52.0638 27.6265C52.2639 27.71 52.4457 27.8323 52.5989 27.9866C52.7521 28.1409 52.8736 28.324 52.9565 28.5256C53.0394 28.7272 53.082 28.9432 53.082 29.1614V79.1667H43.082V29.1614C43.082 28.9432 43.1247 28.7272 43.2076 28.5256C43.2905 28.324 43.412 28.1409 43.5652 27.9866C43.7183 27.8323 43.9002 27.71 44.1003 27.6265C44.3004 27.543 44.5149 27.5 44.7315 27.5Z" fill="white" stroke="#00D2B7" stroke-width="2" stroke-linecap="round" stroke-linejoin="round"/>
<path d="M26.3995 47.5H33.1005C33.3171 47.5 33.5316 47.5427 33.7317 47.6256C33.9319 47.7085 34.1137 47.83 34.2669 47.9831C34.42 48.1363 34.5415 48.3181 34.6244 48.5183C34.7073 48.7184 34.75 48.9329 34.75 49.1495V79.1667H24.75V49.1409C24.7523 48.7049 24.9271 48.2876 25.2361 47.9801C25.5452 47.6726 25.9635 47.5 26.3995 47.5Z" fill="white" stroke="#00D2B7" stroke-width="2" stroke-linecap="round" stroke-linejoin="round"/>
<path d="M8.89948 59.166H15.6005C16.038 59.166 16.4575 59.3374 16.7669 59.6426C17.0762 59.9477 17.25 60.3616 17.25 60.7931V79.166H7.25V60.7847C7.25227 60.3546 7.42706 59.9429 7.73615 59.6396C8.04524 59.3363 8.4635 59.166 8.89948 59.166Z" fill="white" stroke="#00D2B7" stroke-width="2" stroke-linecap="round" stroke-linejoin="round"/>
<path d="M76.4154 79.166L0.582031 79.166" stroke="#00D2B7" stroke-width="2" stroke-miterlimit="10"/>
<path d="M1.31641 51.1826C1.31641 51.1826 45.9242 47.0968 40.7826 0.720703L32.053 9.39561" stroke="#00D2B7" stroke-width="2" stroke-linecap="round" stroke-linejoin="round"/>
<path d="M40.7812 0.720703L49.4846 9.36959" stroke="#00D2B7" stroke-width="2" stroke-linecap="round" stroke-linejoin="round"/>
<path d="M8.4974 22.5007C11.0287 22.5007 13.0807 20.4486 13.0807 17.9173C13.0807 15.386 11.0287 13.334 8.4974 13.334C5.96609 13.334 3.91406 15.386 3.91406 17.9173C3.91406 20.4486 5.96609 22.5007 8.4974 22.5007Z" stroke="#00D2B7" stroke-width="2" stroke-miterlimit="10"/>
<path d="M20.9974 31.6667C23.5287 31.6667 25.5807 29.6146 25.5807 27.0833C25.5807 24.552 23.5287 22.5 20.9974 22.5C18.4661 22.5 16.4141 24.552 16.4141 27.0833C16.4141 29.6146 18.4661 31.6667 20.9974 31.6667Z" stroke="#00D2B7" stroke-width="2" stroke-miterlimit="10"/>
<path d="M19.7474 14.166L8.91406 31.666" stroke="#00D2B7" stroke-width="2" stroke-miterlimit="10" stroke-linecap="round"/>
</g>
<defs>
<clipPath id="clip0_237_2533">
<rect width="75.8333" height="80" fill="white" transform="translate(0.582031)"/>
</clipPath>
</defs>
</svg>
