<svg width="91" height="80" viewBox="0 0 91 80" fill="none" xmlns="http://www.w3.org/2000/svg">
<g clip-path="url(#clip0_237_2515)">
<path d="M23.1875 38.2141L46.1001 60.8629C48.5004 63.2374 51.7155 64.6343 55.1083 64.7768L59.3427 64.958L61.8875 67.4834L76.9827 52.5519L74.3158 49.9158V45.8912C74.317 44.1294 73.967 42.3847 73.2858 40.7567C72.6047 39.1287 71.6057 37.6493 70.3461 36.403L47.6676 14.0059L23.2384 38.2041" fill="white"/>
<path d="M23.1875 38.2141L46.1001 60.8629C48.5004 63.2374 51.7155 64.6343 55.1083 64.7768L59.3427 64.958L61.8875 67.4834L76.9827 52.5519L74.3158 49.9158V45.8912C74.317 44.1294 73.967 42.3847 73.2858 40.7567C72.6047 39.1287 71.6057 37.6493 70.3461 36.403L47.6676 14.0059L23.2384 38.2041" stroke="#00D2B7" stroke-width="2" stroke-linecap="round" stroke-linejoin="round"/>
<path d="M31.7681 67.4621L12.4572 48.3735C11.7257 47.6506 10.5399 47.6506 9.80847 48.3735L2.26545 55.8297C1.53404 56.5527 1.53404 57.7249 2.26545 58.4479L21.5764 77.5365C22.3078 78.2595 23.4937 78.2595 24.2251 77.5365L31.7681 70.0803C32.4996 69.3573 32.4996 68.1851 31.7681 67.4621Z" fill="#00D2B7" stroke="#00D2B7" stroke-width="2" stroke-linejoin="round"/>
<path d="M78.5449 49.4936L59.2195 68.5965C58.492 69.3155 58.492 70.4813 59.2195 71.2004L66.7769 78.6708C67.5043 79.3898 68.6837 79.3899 69.4112 78.6708L88.7366 59.568C89.464 58.8489 89.464 57.6831 88.7366 56.964L81.1792 49.4936C80.4517 48.7746 79.2723 48.7746 78.5449 49.4936Z" fill="#00D2B7" stroke="#00D2B7" stroke-width="2" stroke-linejoin="round"/>
<path d="M75.9954 26.6325C75.5946 26.2358 75.1185 25.9211 74.5946 25.7064C74.0706 25.4916 73.509 25.3811 72.9418 25.3811C72.3745 25.3811 71.8129 25.4916 71.2889 25.7064C70.7649 25.9211 70.2889 26.2358 69.8881 26.6325L64.0556 32.3878L72.0358 24.5095C72.4765 24.1224 72.8325 23.6504 73.0819 23.1223C73.3313 22.5943 73.4689 22.0215 73.4862 21.439C73.5036 20.8565 73.4003 20.2766 73.1827 19.735C72.9652 19.1934 72.6379 18.7015 72.2211 18.2895C71.8042 17.8774 71.3065 17.5539 70.7586 17.3388C70.2107 17.1238 69.6241 17.0217 69.0348 17.0388C68.4455 17.056 67.866 17.192 67.3319 17.4385C66.7977 17.6851 66.3201 18.037 65.9285 18.4725L57.9483 26.3206L65.9285 18.4323C66.3298 18.0361 66.6482 17.5656 66.8655 17.0476C67.0827 16.5297 67.1945 15.9745 67.1945 15.4138C67.1945 14.8531 67.0827 14.298 66.8655 13.78C66.6482 13.2621 66.3298 12.7915 65.9285 12.3953V12.3953C65.5277 11.9986 65.0517 11.6839 64.5277 11.4692C64.0037 11.2544 63.4421 11.1439 62.8749 11.1439C62.3076 11.1439 61.746 11.2544 61.222 11.4692C60.6981 11.6839 60.222 11.9986 59.8212 12.3953L57.7142 14.468C58.4915 13.6561 58.9154 12.575 58.8946 11.4573C58.8739 10.3396 58.4101 9.27469 57.6031 8.49152C56.7962 7.70836 55.7105 7.26955 54.5796 7.26953C53.4487 7.26951 52.363 7.70826 51.556 8.4914L45.123 14.8504L19.0448 40.5679L11.543 47.9833L31.1881 67.4022L33.855 64.7661H37.9265C39.7071 64.7665 41.4704 64.4201 43.1156 63.7468C44.7608 63.0735 46.2557 62.0865 47.515 60.842L70.1629 38.4247L75.9852 32.6695C76.3872 32.2739 76.7064 31.8039 76.9245 31.2864C77.1426 30.7688 77.2554 30.2138 77.2563 29.6531C77.2572 29.0924 77.1464 28.537 76.93 28.0188C76.7137 27.5005 76.3961 27.0294 75.9954 26.6325V26.6325Z" fill="white" stroke="#00D2B7" stroke-width="2" stroke-linecap="round" stroke-linejoin="round"/>
<path d="M57.6747 14.4492L52.8906 19.1782" stroke="#00D2B7" stroke-width="2" stroke-linecap="round" stroke-linejoin="round"/>
<path d="M17.3754 26.4216L17.3682 26.4287C15.6827 28.0947 15.6827 30.7959 17.3682 32.4619L23.8027 38.8224C25.4882 40.4884 28.2208 40.4884 29.9063 38.8224L29.9134 38.8153C31.5989 37.1493 31.5989 34.4481 29.9135 32.7821L23.4789 26.4216C21.7934 24.7555 19.0608 24.7556 17.3754 26.4216Z" fill="white" stroke="#00D2B7" stroke-width="2" stroke-linecap="round" stroke-linejoin="round"/>
<path d="M21.3207 18.2575L21.3135 18.2646C19.628 19.9307 19.628 22.6318 21.3135 24.2979L31.1597 34.0307C32.8451 35.6967 35.5778 35.6967 37.2632 34.0307L37.2704 34.0236C38.9558 32.3576 38.9558 29.6564 37.2704 27.9904L27.4242 18.2575C25.7387 16.5915 23.0061 16.5915 21.3207 18.2575Z" fill="white" stroke="#00D2B7" stroke-width="2" stroke-linecap="round" stroke-linejoin="round"/>
<path d="M27.4379 12.1892L27.4307 12.1963C25.7452 13.8623 25.7452 16.5635 27.4307 18.2295L37.2769 27.9623C38.9623 29.6283 41.6949 29.6283 43.3804 27.9623L43.3876 27.9552C45.073 26.2892 45.073 23.588 43.3876 21.922L33.5413 12.1892C31.8559 10.5231 29.1233 10.5231 27.4379 12.1892Z" fill="white" stroke="#00D2B7" stroke-width="2" stroke-linecap="round" stroke-linejoin="round"/>
<path d="M35.7464 8.25362L35.7392 8.26074C34.0538 9.92677 34.0538 12.6279 35.7393 14.294L42.1739 20.6545C43.8593 22.3205 46.5919 22.3205 48.2773 20.6545L48.2846 20.6473C49.97 18.9813 49.97 16.2802 48.2846 14.6141L41.85 8.25364C40.1645 6.58761 37.4319 6.58759 35.7464 8.25362Z" fill="white" stroke="#00D2B7" stroke-width="2" stroke-linecap="round" stroke-linejoin="round"/>
<path d="M52.8602 6.96205L47.9336 2.08216C47.1064 1.28323 45.9957 0.835938 44.8392 0.835938C43.6827 0.835938 42.5721 1.28323 41.7448 2.08216L36.574 7.17334C35.7684 7.97614 35.3164 9.06108 35.3164 10.1918C35.3164 11.3226 35.7684 12.4075 36.574 13.2103V13.2103C37.3849 14.0091 38.4829 14.4576 39.6277 14.4576C40.7724 14.4576 41.8705 14.0091 42.6813 13.2103L44.8392 11.0773L46.6918 12.9085L52.2087 7.46513C52.4076 7.27554 52.6259 7.10694 52.8602 6.96205V6.96205Z" fill="white" stroke="#00D2B7" stroke-width="2" stroke-linecap="round" stroke-linejoin="round"/>
</g>
<defs>
<clipPath id="clip0_237_2515">
<rect width="89.1667" height="80" fill="white" transform="translate(0.917969)"/>
</clipPath>
</defs>
</svg>
