<svg width="64" height="64" viewBox="0 0 64 64" fill="none" xmlns="http://www.w3.org/2000/svg">
<path d="M11 33.5C11 27.1487 16.1487 22 22.5 22V22C28.8513 22 34 27.1487 34 33.5V55H11V33.5Z" fill="#D5F4F0"/>
<path d="M34 55V55.5C34.2761 55.5 34.5 55.2761 34.5 55H34ZM11 55H10.5C10.5 55.2761 10.7239 55.5 11 55.5V55ZM33.5 33.5V55H34.5V33.5H33.5ZM34 54.5H11V55.5H34V54.5ZM11.5 55V33.5H10.5V55H11.5ZM22.5 22.5C28.5751 22.5 33.5 27.4249 33.5 33.5H34.5C34.5 26.8726 29.1274 21.5 22.5 21.5V22.5ZM22.5 21.5C15.8726 21.5 10.5 26.8726 10.5 33.5H11.5C11.5 27.4249 16.4249 22.5 22.5 22.5V21.5Z" fill="#007972"/>
<path d="M6 46C6 44.8954 6.89543 44 8 44H11V55H8C6.89543 55 6 54.1046 6 53V46Z" fill="white"/>
<path d="M11 44H11.5C11.5 43.7239 11.2761 43.5 11 43.5V44ZM11 55V55.5C11.2761 55.5 11.5 55.2761 11.5 55H11ZM8 44.5H11V43.5H8V44.5ZM10.5 44V55H11.5V44H10.5ZM11 54.5H8V55.5H11V54.5ZM6.5 53V46H5.5V53H6.5ZM8 54.5C7.17157 54.5 6.5 53.8284 6.5 53H5.5C5.5 54.3807 6.61929 55.5 8 55.5V54.5ZM8 43.5C6.61929 43.5 5.5 44.6193 5.5 46H6.5C6.5 45.1716 7.17157 44.5 8 44.5V43.5Z" fill="#007972"/>
<path d="M39 46C39 44.8954 38.1046 44 37 44H34V55H37C38.1046 55 39 54.1046 39 53V46Z" fill="white"/>
<path d="M34 44H33.5C33.5 43.7239 33.7239 43.5 34 43.5V44ZM34 55V55.5C33.7239 55.5 33.5 55.2761 33.5 55H34ZM37 44.5H34V43.5H37V44.5ZM34.5 44V55H33.5V44H34.5ZM34 54.5H37V55.5H34V54.5ZM38.5 53V46H39.5V53H38.5ZM37 54.5C37.8284 54.5 38.5 53.8284 38.5 53H39.5C39.5 54.3807 38.3807 55.5 37 55.5V54.5ZM37 43.5C38.3807 43.5 39.5 44.6193 39.5 46H38.5C38.5 45.1716 37.8284 44.5 37 44.5V43.5Z" fill="#007972"/>
<path d="M22 22V22.5H23V22H22ZM49.5 47V47.5H50.5V47H49.5ZM23 22V19.75H22V22H23ZM49.5 19.75V47H50.5V19.75H49.5ZM36.25 6.5C43.5678 6.5 49.5 12.4322 49.5 19.75H50.5C50.5 11.8799 44.1201 5.5 36.25 5.5V6.5ZM23 19.75C23 12.4322 28.9322 6.5 36.25 6.5V5.5C28.3799 5.5 22 11.8799 22 19.75H23Z" fill="#007972"/>
<path d="M42 54.5C42 50.3579 45.3579 47 49.5 47H50.5C54.6421 47 58 50.3579 58 54.5V55H42V54.5Z" fill="white"/>
<path d="M58 55V55.5C58.2761 55.5 58.5 55.2761 58.5 55H58ZM42 55H41.5C41.5 55.2761 41.7239 55.5 42 55.5V55ZM49.5 47.5H50.5V46.5H49.5V47.5ZM57.5 54.5V55H58.5V54.5H57.5ZM58 54.5H42V55.5H58V54.5ZM42.5 55V54.5H41.5V55H42.5ZM50.5 47.5C54.366 47.5 57.5 50.634 57.5 54.5H58.5C58.5 50.0817 54.9183 46.5 50.5 46.5V47.5ZM49.5 46.5C45.0817 46.5 41.5 50.0817 41.5 54.5H42.5C42.5 50.634 45.634 47.5 49.5 47.5V46.5Z" fill="#007972"/>
<path d="M22.5 28L22.5 32" stroke="#007972" stroke-linecap="round" stroke-linejoin="round"/>
</svg>
